<?xml version="1.0" encoding="utf-8"?>
<!-- Generator: Adobe Illustrator 23.0.1, SVG Export Plug-In . SVG Version: 6.00 Build 0)  -->
<svg version="1.1" id="Layer_1" xmlns="http://www.w3.org/2000/svg" xmlns:xlink="http://www.w3.org/1999/xlink" x="0px" y="0px"
	 viewBox="0 0 1350 217.7" style="enable-background:new 0 0 1350 217.7;" xml:space="preserve">
<style type="text/css">
	.st0{fill:#32CA8B;}
</style>
<path class="st0" d="M517.5,149.9l-23.2-38.1c-0.2-0.3-0.6-0.4-0.9-0.1l-13.8,13c-0.1,0.1-0.2,0.3-0.2,0.4v21c0,5.1-1.3,9.1-4,11.9
	s-5.8,4.2-9.3,4.2c-4.1,0-7.3-1.4-9.7-4.1s-3.5-6.8-3.5-12.1V32.2c0-5.9,1.1-10.4,3.4-13.5c2.3-3.1,5.5-4.6,9.8-4.6
	c4.1,0,7.4,1.4,9.8,4.2c2.4,2.8,3.6,6.9,3.6,12.4v63.2c0,0.5,0.6,0.8,1,0.4l29-30.4c3.7-3.9,6.5-6.6,8.5-8c2-1.4,4.3-2.1,7.1-2.1
	c3.3,0,6.1,1.1,8.3,3.2c2.2,2.1,3.3,4.8,3.3,8c0,3.9-3.6,9.1-10.8,15.6l-13.8,12.7c-0.2,0.2-0.2,0.5-0.1,0.7l27.1,42.6
	c2,3.2,3.5,5.6,4.3,7.3s1.3,3.2,1.3,4.7c0,4.2-1.2,7.6-3.5,10s-5.4,3.7-9.1,3.7c-3.3,0-5.8-0.9-7.5-2.6S520.5,154.5,517.5,149.9z"/>
<path class="st0" d="M115.8,40.4H84.8c-0.3,0-0.6,0.3-0.6,0.6v103.4c0,6-1.3,10.4-4,13.3s-6.1,4.3-10.4,4.3c-4.3,0-7.8-1.5-10.5-4.4
	s-4-7.4-4-13.3V40.9c0-0.3-0.3-0.6-0.6-0.6H23.7c-5,0-8.6-1.1-11-3.3S9,32,9,28.5c0-3.7,1.3-6.6,3.8-8.8s6.1-3.2,10.9-3.2h92.2
	c5,0,8.7,1.1,11.2,3.3c2.4,2.2,3.7,5.1,3.7,8.7c0,3.6-1.2,6.5-3.7,8.6C124.5,39.3,120.8,40.4,115.8,40.4z"/>
<path class="st0" d="M164.9,123.6v22.3c0,5.4-1.3,9.5-3.8,12.2s-5.8,4-9.7,4c-3.8,0-7-1.4-9.5-4.1c-2.5-2.7-3.7-6.8-3.7-12.1V71.6
	c0-12,4.3-18,13-18c4.4,0,7.6,1.4,9.6,4.2c1.7,2.5,2.8,6,3.1,10.6c0,0.5,0.8,0.7,1,0.3c2.9-4.7,5.8-8.3,8.9-10.8
	c3.3-2.8,7.8-4.2,13.4-4.2s11,1.4,16.3,4.2c5.3,2.8,7.9,6.5,7.9,11.1c0,3.3-1.1,5.9-3.4,8.1s-4.7,3.2-7.3,3.2c-1,0-3.3-0.6-7.1-1.8
	c-3.7-1.2-7-1.8-9.9-1.8c-3.9,0-7.1,1-9.6,3.1c-2.5,2.1-4.4,5.1-5.8,9.1s-2.3,8.8-2.8,14.4C165.1,108.8,164.9,115.6,164.9,123.6z"/>
<path class="st0" d="M288.7,147.6c-0.2-0.3-0.6-0.4-0.8-0.2c-6.3,4.8-12.3,8.5-18.2,10.9c-6,2.5-12.8,3.8-20.3,3.8
	c-6.8,0-12.8-1.3-18-4s-9.2-6.4-12-11c-2.8-4.6-4.2-9.6-4.2-15c0-7.3,2.3-13.5,6.9-18.7s11-8.6,19-10.3c1.7-0.4,5.9-1.3,12.6-2.6
	c6.7-1.4,12.5-2.6,17.2-3.8c4.7-1.1,9.7-2.5,15.1-4c0.3-0.1,0.4-0.3,0.4-0.6c-0.4-6.8-1.8-11.8-4.2-15c-2.5-3.3-7.7-4.9-15.6-4.9
	c-6.8,0-11.9,0.9-15.3,2.8c-3.4,1.9-6.3,4.7-8.8,8.5c-2.4,3.8-4.2,6.3-5.2,7.5c-1,1.2-3.2,1.8-6.5,1.8c-3,0-5.6-1-7.8-2.9
	s-3.3-4.4-3.3-7.4c0-4.7,1.7-9.2,5-13.7c3.3-4.4,8.5-8.1,15.5-10.9c7-2.9,15.8-4.3,26.3-4.3c11.7,0,20.9,1.4,27.6,4.1
	c6.7,2.8,11.4,7.1,14.2,13.1c2.8,6,4.2,13.9,4.2,23.8c0,6.3,0,11.6,0,15.9c0,4.4-0.1,9.2-0.2,14.5c0,5,0.8,10.2,2.5,15.7
	c1.7,5.4,2.5,8.9,2.5,10.5c0,2.7-1.3,5.2-3.9,7.5s-5.5,3.4-8.7,3.4c-2.7,0-5.4-1.3-8.1-3.9C294.3,155.7,291.6,152.2,288.7,147.6z
	 M286.6,109.3c0-0.4-0.4-0.7-0.8-0.5c-3.9,1.3-9.3,2.8-16.3,4.3c-7.5,1.6-12.6,2.8-15.5,3.5c-2.9,0.8-5.6,2.2-8.2,4.4
	c-2.6,2.2-3.9,5.2-3.9,9.1c0,4,1.5,7.5,4.6,10.3s7.1,4.3,12,4.3c5.3,0,10.1-1.2,14.6-3.5c4.5-2.3,7.7-5.3,9.8-8.9
	c2.4-4,3.6-10.7,3.6-19.9L286.6,109.3L286.6,109.3z"/>
<path class="st0" d="M435.5,129.1c0,3.3-1,6.9-3,10.6c-2,3.8-5,7.4-9.1,10.8s-9.2,6.2-15.4,8.3c-6.2,2.1-13.2,3.1-20.9,3.1
	c-16.5,0-29.3-4.8-38.6-14.4c-9.3-9.6-13.9-22.5-13.9-38.6c0-10.9,2.1-20.6,6.3-29c4.2-8.4,10.3-14.9,18.4-19.5s17.6-6.9,28.7-6.9
	c6.9,0,13.2,1,19,3s10.6,4.6,14.7,7.8c4,3.2,7.1,6.6,9.2,10.2c2.1,3.6,3.2,7,3.2,10.1c0,3.2-1.2,5.9-3.6,8.1
	c-2.4,2.2-5.3,3.3-8.6,3.3c-2.2,0-4-0.6-5.5-1.7c-1.5-1.1-3.1-3-4.9-5.5c-3.3-5-6.7-8.7-10.2-11.1c-3.5-2.5-8.1-3.7-13.5-3.7
	c-7.9,0-14.2,3.1-19,9.2c-4.8,6.2-7.2,14.6-7.2,25.2c0,5,0.6,9.6,1.9,13.8s3,7.8,5.4,10.7c2.3,3,5.2,5.2,8.5,6.7
	c3.3,1.5,7,2.3,10.9,2.3c5.3,0,9.9-1.2,13.7-3.7c3.8-2.5,7.2-6.3,10.1-11.3c1.6-3,3.4-5.3,5.3-7s4.2-2.5,6.9-2.5
	c3.3,0,6,1.2,8.1,3.7C434.4,123.6,435.5,126.3,435.5,129.1z"/>
<path class="st0" d="M846.2,144.4l-6.7-17.6c-0.1-0.2-0.3-0.4-0.5-0.4h-57.4c-0.2,0-0.4,0.2-0.5,0.4l-6.7,18
	c-2.7,7.2-4.9,12-6.8,14.5c-1.9,2.5-5,3.8-9.3,3.8c-3.7,0-6.9-1.3-9.7-4s-4.2-5.7-4.2-9.1c0-2,0.3-4,1-6s1.7-5,3.2-8.7l36.6-93
	c1-2.7,2.3-5.9,3.8-9.6c1.5-3.7,3-6.9,4.7-9.3c1.7-2.5,3.8-4.5,6.5-6c2.7-1.5,6-2.3,10-2.3c4,0,7.4,0.8,10.1,2.3
	c2.7,1.5,4.9,3.5,6.5,5.9s3.1,5,4.2,7.8c1.1,2.8,2.6,6.5,4.3,11.1l37.4,92.4c2.9,7,4.4,12.1,4.4,15.3c0,2.7-0.9,5.3-2.8,7.6
	c-3.1,4-8.2,6.1-13.2,5.6c-1.5-0.2-2.9-0.5-4-1.1c-1.6-0.8-3-1.9-4.1-3.3c-1.1-1.4-2.3-3.5-3.6-6.5
	C848.2,149.2,847.1,146.6,846.2,144.4z M789.6,104.7h41.2c0.4,0,0.7-0.4,0.5-0.8l-20.8-56.8c-0.2-0.5-0.9-0.5-1.1,0l-20.4,56.8
	C788.9,104.3,789.2,104.7,789.6,104.7z"/>
<path class="st0" d="M911.8,68.4V70c0,0.5,0.7,0.8,1,0.4c4.4-5.5,9.2-9.6,14.4-12.3c5.6-2.9,12-4.4,19.2-4.4c7,0,13.3,1.5,18.8,4.6
	c5.5,3.1,9.7,7.4,12.4,13c1.8,3.3,2.9,6.8,3.4,10.6s0.8,8.6,0.8,14.5v49.6c0,5.3-1.2,9.4-3.7,12.1s-5.6,4.1-9.5,4.1
	c-4,0-7.2-1.4-9.7-4.2c-2.5-2.8-3.7-6.8-3.7-12v-44.4c0-8.8-1.2-15.5-3.7-20.2c-2.4-4.6-7.3-7-14.6-7c-4.8,0-9.1,1.4-13,4.3
	s-6.8,6.7-8.6,11.7c-1.3,4-1.9,11.4-1.9,22.3v33.4c0,5.4-1.3,9.5-3.8,12.2c-2.5,2.7-5.8,4-9.7,4c-3.8,0-7-1.4-9.5-4.2
	s-3.7-6.8-3.7-12v-77c0-5.1,1.1-8.9,3.3-11.4s5.2-3.8,9.1-3.8c2.3,0,4.5,0.5,6.3,1.7c1.9,1.1,3.4,2.8,4.5,5
	C911.3,62.5,911.8,65.2,911.8,68.4z"/>
<path class="st0" d="M1020.9,42.3c-3.7,0-6.9-1.1-9.5-3.4s-4-5.5-4-9.7c0-3.8,1.3-6.9,4.1-9.3c2.7-2.4,5.8-3.7,9.4-3.7
	c3.4,0,6.5,1.1,9.2,3.3c2.7,2.2,4,5.4,4,9.7c0,4.1-1.3,7.3-3.9,9.6C1027.5,41.1,1024.5,42.3,1020.9,42.3z M1034.1,69.8v77.1
	c0,5.3-1.3,9.4-3.8,12.1s-5.8,4.1-9.7,4.1s-7.1-1.4-9.5-4.2s-3.7-6.8-3.7-12V70.6c0-5.3,1.2-9.2,3.7-11.9c2.4-2.7,5.6-4,9.5-4
	s7.1,1.3,9.7,4C1032.8,61.3,1034.1,65,1034.1,69.8z"/>
<path class="st0" d="M1151.3,109.8v35.5c0,5.6-1.3,9.8-3.8,12.6s-5.9,4.2-10.1,4.2c-4,0-7.3-1.4-9.8-4.2c-2.5-2.8-3.8-7-3.8-12.6
	v-42.5c0-6.7-0.2-11.9-0.7-15.6c-0.5-3.7-1.7-6.8-3.7-9.1s-5.2-3.6-9.6-3.6c-8.7,0-14.5,3-17.2,9c-2.8,6-4.2,14.6-4.2,25.8v36
	c0,5.5-1.3,9.7-3.8,12.5s-5.8,4.3-9.9,4.3c-4,0-7.3-1.4-9.9-4.3c-2.6-2.8-3.9-7-3.9-12.5V69c0-5,1.2-8.8,3.5-11.4
	c2.3-2.6,5.3-3.9,9.1-3.9c3.7,0,6.7,1.2,9.1,3.7s3.7,5.8,3.7,10.1V70c4.6-5.5,9.6-9.6,14.8-12.2c5.3-2.6,11.1-3.9,17.6-3.9
	c6.7,0,12.5,1.3,17.3,4c4.6,2.6,8.4,6.4,11.5,11.4c0.2,0.3,0.7,0.4,0.9,0.1c4.3-5.2,9-9,13.9-11.5c5.1-2.6,10.8-4,17.1-4
	c7.3,0,13.6,1.4,18.8,4.3c5.3,2.9,9.2,7,11.8,12.3c2.3,4.8,3.4,12.4,3.4,22.7v52c0,5.6-1.3,9.8-3.8,12.6s-5.9,4.2-10.1,4.2
	c-4,0-7.3-1.4-9.9-4.3c-2.6-2.8-3.9-7-3.9-12.5v-44.8c0-5.7-0.2-10.3-0.7-13.8s-1.8-6.4-4-8.7s-5.4-3.5-9.8-3.5c-3.5,0-6.8,1-10,3.1
	c-3.2,2.1-5.6,4.9-7.4,8.4c0,0,0,0,0,0C1152.3,90.5,1151.3,98.4,1151.3,109.8z"/>
<path class="st0" d="M1314,114.4h-51.6c-0.3,0-0.6,0.3-0.6,0.6c0.1,5.8,1.3,11,3.7,15.4c2.4,4.6,5.5,8.1,9.5,10.5s8.3,3.5,13,3.5
	c3.2,0,6.1-0.4,8.7-1.1s5.2-1.9,7.7-3.5c2.5-1.6,4.8-3.3,6.8-5.1c2.1-1.8,4.8-4.3,8.1-7.4c1.4-1.2,3.3-1.8,5.9-1.8
	c2.7,0,4.9,0.8,6.6,2.3c1.7,1.5,2.5,3.6,2.5,6.3c0,2.4-0.9,5.2-2.8,8.5c-1.9,3.2-4.7,6.3-8.5,9.3c-3.8,3-8.6,5.4-14.4,7.4
	s-12.4,2.9-19.9,2.9c-17.1,0-30.4-4.9-39.9-14.7c-9.5-9.8-14.3-23-14.3-39.8c0-7.9,1.2-15.2,3.5-21.9s5.8-12.5,10.3-17.3
	c4.5-4.8,10-8.5,16.6-11.1c6.6-2.6,13.9-3.9,21.9-3.9c10.4,0,19.3,2.2,26.8,6.6c7.4,4.4,13,10.1,16.8,17c3.7,7,5.6,14.1,5.6,21.3
	c0,6.7-1.9,11-5.8,13C1326.3,113.4,1320.9,114.4,1314,114.4z M1262.5,99.3h47.1c0.3,0,0.6-0.3,0.6-0.6c-0.7-8.8-3.2-15.4-7.3-19.8
	c-4.3-4.5-9.9-6.8-16.8-6.8c-6.6,0-12.1,2.3-16.4,6.9c-4.2,4.5-6.7,11-7.7,19.7C1261.8,99,1262.1,99.3,1262.5,99.3z"/>
<path d="M586.9,138l-21.8-86.8c-0.2-0.6-1.1-0.5-1.1,0.1v94.2c0,5.5-1.2,9.6-3.7,12.3s-5.7,4.1-9.7,4.1c-3.9,0-7.1-1.3-9.6-4
	c-2.5-2.7-3.7-6.8-3.7-12.3V32.4c0-6.3,1.6-10.5,4.9-12.6c3.3-2.2,7.7-3.3,13.2-3.3h9c5.4,0,9.3,0.5,11.8,1.5s4.3,2.7,5.4,5.3
	s2.5,6.7,4,12.4l20.3,76.3c0.2,0.6,1,0.6,1.1,0l20.3-76.3c1.5-5.7,2.8-9.9,4-12.4s3-4.3,5.4-5.3s6.4-1.5,11.8-1.5h9
	c5.5,0,9.9,1.1,13.2,3.3s4.9,6.4,4.9,12.6v113.3c0,5.5-1.2,9.6-3.7,12.3s-5.7,4.1-9.8,4.1c-3.8,0-7-1.4-9.5-4.1s-3.7-6.8-3.7-12.3
	V51.4c0-0.7-1-0.8-1.1-0.1L625.8,138c-1.5,5.9-2.7,10.3-3.7,13c-0.9,2.8-2.7,5.3-5.2,7.6s-6,3.4-10.5,3.4c-3.4,0-6.3-0.7-8.6-2.2
	s-4.2-3.3-5.5-5.6c-1.3-2.3-2.3-4.8-3.1-7.6C588.5,143.9,587.7,141,586.9,138z"/>
<path d="M713,167.4l2.3-5.7c0.1-0.1,0.1-0.3,0-0.4l-32.7-82.4c-2-4.8-3-8.2-3-10.4c0-2.3,0.6-4.4,1.8-6.4s2.8-3.5,4.8-4.7
	s4.2-1.8,6.4-1.8c3.8,0,6.7,1.2,8.7,3.7s3.7,5.9,5.2,10.5l22,64.1c0.2,0.5,0.9,0.5,1.1,0l20.8-59.5c1.7-5,3.2-8.8,4.6-11.6
	s2.8-4.7,4.3-5.7c1.5-1,3.7-1.5,6.5-1.5c2,0,4,0.5,5.8,1.6s3.3,2.5,4.3,4.4c1,1.8,1.5,3.7,1.5,5.7c0,0,0,0.1,0,0.1
	c-0.3,1.2-0.7,3-1.3,5.2c-0.6,2.3-1.3,4.6-2.2,6.9l-34.8,91c-3,8-5.9,14.3-8.8,18.8s-6.7,8.1-11.4,10.5s-11.1,3.7-19.1,3.7
	c-7.8,0-13.7-0.8-17.6-2.5c-3.9-1.7-5.9-4.8-5.9-9.3c0-3.1,0.9-5.4,2.8-7.1s4.6-2.5,8.3-2.5c1.4,0,2.8,0.2,4.2,0.6
	c1.7,0.4,3.2,0.6,4.4,0.6c3.1,0,5.5-0.5,7.2-1.4s3.3-2.5,4.7-4.7C709.5,175,711.1,171.7,713,167.4z"/>
</svg>
